<svg id="Layer_1" data-name="Layer 1" xmlns="http://www.w3.org/2000/svg" viewBox="0 0 494.24 494.24"><defs><style>.cls-1{fill:#c6131e;}</style></defs><path class="cls-1" d="M668.29,297.48C668.29,160.8,557,50.37,421.17,50.37a247.12,247.12,0,1,0,0,494.23h0c135.78,0,247.12-110.43,247.12-247.12ZM280.87,409.73l38-180.14,30.77,86-19.91,94.14ZM412.12,299.29l-24.44,67.89L317.08,168l68.79,53.41,26.25,77.84Zm45.26-70.6,19,87.8-28.06,94.14H393.11l64.27-181.94Zm104.1,181H515.31L464.62,169l55.22,43.44,41.64,197.34Z" transform="translate(-174.05 -50.37)"/></svg>