<svg id="Layer_1" data-name="Layer 1" xmlns="http://www.w3.org/2000/svg" viewBox="0 0 500 500"><defs><style>.cls-1{fill:#c6131e;}.cls-2{fill:#fff;}</style></defs><circle class="cls-1" cx="250.12" cy="241.95" r="191"/><path class="cls-2" d="M497.12,250C497.12,113.32,385.78,2.88,250,2.88a247.12,247.12,0,0,0,0,494.24h0c135.78,0,247.12-110.44,247.12-247.12ZM109.7,362.24l38-180.13,30.78,86-19.91,94.14ZM241,251.81,216.51,319.7,145.9,120.56,214.7,174,241,251.81Zm45.26-70.6,19,87.8-28.06,94.14H221.94l64.27-181.94Zm104.09,181H344.14L293.45,121.46l55.22,43.45L390.3,362.24Z"/></svg>